<?xml version="1.0" standalone="no"?><!DOCTYPE svg PUBLIC "-//W3C//DTD SVG 1.1//EN" "http://www.w3.org/Graphics/SVG/1.1/DTD/svg11.dtd"><svg class="icon" height="512" viewBox="0 0 1024 1024" version="1.1" xmlns="http://www.w3.org/2000/svg"><path d="M567.855 460.8h181.527v102.4H567.855v181.527h-102.4V563.2H283.927V460.8h181.528V279.273h102.4V460.8zM512 1024C229.23 1024 0 794.77 0 512S229.23 0 512 0s512 229.23 512 512-229.23 512-512 512z m0-93.09c231.357 0 418.91-187.553 418.91-418.91 0-231.357-187.553-418.91-418.91-418.91C280.643 93.09 93.09 280.644 93.09 512c0 231.357 187.553 418.91 418.91 418.91z" /></svg>